<?xml version="1.0" standalone="no"?>
<!DOCTYPE svg PUBLIC "-//W3C//DTD SVG 20010904//EN"
 "http://www.w3.org/TR/2001/REC-SVG-20010904/DTD/svg10.dtd">
<svg version="1.0" xmlns="http://www.w3.org/2000/svg"
 width="227.000000pt" height="207.000000pt" viewBox="0 0 227.000000 207.000000"
 preserveAspectRatio="xMidYMid meet">

<g transform="translate(0.000000,207.000000) scale(0.100000,-0.100000)"
fill="#000000" stroke="none">
<path d="M894 2055 c-9 -22 4 -35 35 -35 31 0 52 16 44 36 -7 19 -72 18 -79
-1z"/>
<path d="M1123 2054 c-7 -19 4 -29 38 -38 34 -8 58 16 39 39 -17 20 -69 19
-77 -1z"/>
<path d="M188 2019 c-10 -5 -18 -15 -18 -22 0 -7 36 -42 80 -80 44 -37 80 -74
80 -81 0 -19 -70 -103 -93 -111 -12 -4 -39 9 -81 39 -65 46 -100 57 -108 34
-8 -22 19 -133 45 -185 23 -44 86 -113 105 -113 4 0 55 -8 113 -18 75 -13 115
-25 135 -41 16 -12 137 -128 269 -256 132 -128 362 -349 510 -491 l270 -259 6
-60 c25 -268 378 -337 495 -98 49 99 35 206 -36 287 -52 59 -111 88 -186 92
-47 2 -72 8 -92 24 -15 12 -133 124 -262 249 -129 126 -307 296 -395 378 -88
83 -213 202 -278 264 l-119 114 -14 85 c-31 183 -132 261 -337 260 -40 0 -80
-5 -89 -11z m249 -74 c64 -29 99 -79 114 -161 6 -32 16 -78 24 -102 l13 -43
-61 -70 c-43 -48 -66 -67 -77 -63 -22 9 -74 20 -158 34 -85 14 -119 38 -151
105 -32 69 -28 81 16 50 23 -15 52 -25 74 -25 31 0 44 8 92 59 85 89 85 128 3
197 -25 21 -46 42 -46 47 0 16 101 -2 157 -28z m415 -550 c117 -110 282 -268
368 -351 85 -83 224 -217 309 -297 l154 -147 61 1 c68 1 117 -16 158 -53 126
-119 59 -334 -112 -362 -54 -8 -130 17 -167 56 -46 49 -57 76 -63 148 l-5 66
-255 244 c-271 259 -445 426 -658 633 -149 144 -143 124 -61 215 24 28 47 49
51 48 4 0 103 -91 220 -201z"/>
<path d="M1711 544 c-12 -15 -21 -37 -21 -49 0 -14 -7 -25 -20 -28 -18 -5 -20
-14 -20 -96 l0 -91 110 0 110 0 0 91 c0 82 -2 91 -20 96 -14 4 -20 14 -20 34
0 65 -80 93 -119 43z m79 -14 c11 -11 20 -29 20 -40 0 -17 -7 -20 -45 -20 -43
0 -45 1 -45 30 0 17 7 33 18 39 24 15 29 14 52 -9z m-3 -146 c3 -8 -2 -23 -11
-32 -15 -15 -17 -15 -32 0 -21 21 -11 48 16 48 11 0 23 -7 27 -16z"/>
<path d="M694 2020 c-31 -12 -39 -30 -21 -47 13 -14 20 -14 46 -3 33 13 39 28
19 48 -14 14 -15 14 -44 2z"/>
<path d="M1357 2013 c-16 -15 -5 -44 20 -54 33 -12 53 -5 53 19 0 25 -56 52
-73 35z"/>
<path d="M1560 1895 c-10 -13 -10 -19 5 -35 24 -27 65 -27 65 -1 0 11 -10 27
-22 35 -28 20 -32 20 -48 1z"/>
<path d="M970 1873 c-66 -21 -82 -44 -90 -128 l-5 -60 -45 -16 c-47 -17 -56
-35 -29 -52 11 -7 33 -4 75 9 l59 19 3 75 c2 41 8 80 14 87 14 17 138 17 161
1 12 -10 17 -32 19 -87 l3 -75 76 -27 c43 -14 87 -34 100 -43 38 -26 62 -19
106 29 54 60 77 59 137 -5 25 -27 46 -59 46 -70 0 -11 -20 -43 -45 -69 -25
-26 -45 -53 -45 -60 0 -6 11 -33 24 -59 13 -26 30 -67 37 -92 19 -67 23 -70
100 -70 84 0 99 -16 99 -100 0 -84 -15 -100 -99 -100 -76 0 -86 -6 -96 -60 -5
-29 -2 -39 14 -54 22 -20 20 -23 46 52 3 8 18 13 37 12 71 -4 90 0 119 29 28
28 29 33 29 118 0 124 -22 152 -128 159 -31 3 -56 5 -57 7 0 1 -14 36 -31 78
l-30 75 43 53 c62 76 58 107 -25 193 -49 51 -98 74 -134 63 -13 -4 -41 -25
-63 -46 l-41 -39 -79 34 -80 33 -6 59 c-7 72 -14 88 -46 109 -25 17 -141 29
-173 18z"/>
<path d="M1730 1727 c0 -13 5 -28 12 -35 7 -7 22 -12 35 -12 28 0 31 30 5 53
-27 25 -52 22 -52 -6z"/>
<path d="M1863 1544 c-9 -24 14 -64 37 -64 28 0 35 25 16 55 -19 28 -44 33
-53 9z"/>
<path d="M1050 1383 c0 -15 41 -48 99 -79 53 -28 103 -83 117 -128 6 -20 51
-65 67 -66 12 0 8 27 -13 83 -24 64 -83 128 -149 162 -53 26 -121 42 -121 28z"/>
<path d="M79 1343 c-13 -34 -5 -53 21 -53 26 0 46 46 29 66 -18 22 -39 16 -50
-13z"/>
<path d="M1943 1324 c-8 -21 13 -64 32 -64 20 0 29 23 21 55 -7 28 -43 35 -53
9z"/>
<path d="M449 1280 c-12 -40 -23 -46 -73 -41 -34 3 -85 -19 -106 -46 -17 -21
-20 -41 -20 -115 0 -86 1 -91 29 -119 29 -29 38 -31 114 -33 38 -1 39 -2 61
-61 12 -33 27 -69 33 -80 9 -16 5 -26 -28 -64 -67 -76 -65 -115 13 -197 53
-56 102 -80 140 -69 13 4 41 25 64 46 l40 40 55 -24 c30 -13 66 -29 82 -35 24
-10 27 -16 27 -62 0 -102 40 -135 159 -135 55 1 83 6 103 19 34 22 40 37 47
111 l6 60 52 19 c29 10 53 22 53 26 0 4 -8 14 -18 23 -16 14 -23 14 -82 -7
l-65 -22 -3 -74 c-2 -41 -8 -80 -14 -87 -14 -17 -138 -17 -161 -1 -12 10 -17
32 -19 88 l-3 74 -60 21 c-33 12 -79 31 -102 43 -23 12 -50 22 -61 22 -10 0
-38 -20 -62 -45 -25 -26 -53 -45 -66 -45 -27 0 -114 91 -114 120 0 11 20 43
45 69 25 26 45 53 45 60 0 6 -11 33 -24 59 -13 26 -30 67 -37 92 -19 67 -23
70 -100 70 -84 0 -99 16 -99 100 0 84 15 100 99 100 76 0 81 4 99 65 10 33 9
42 -5 57 -24 26 -31 23 -44 -22z"/>
<path d="M50 1121 c-13 -25 -13 -33 3 -55 8 -11 19 -15 30 -10 22 8 24 69 1
78 -22 8 -22 8 -34 -13z"/>
<path d="M1974 1096 c-3 -8 -4 -27 -2 -43 2 -20 8 -28 23 -28 26 0 44 47 25
69 -16 20 -39 21 -46 2z"/>
<path d="M730 1047 c0 -50 40 -136 85 -181 51 -51 111 -81 180 -91 l50 -8 -25
27 c-13 15 -52 40 -87 57 -63 30 -100 68 -137 141 -10 20 -29 47 -42 59 l-24
22 0 -26z"/>
<path d="M70 876 c0 -38 10 -56 31 -56 25 0 34 25 21 56 -16 33 -52 33 -52 0z"/>
<path d="M1940 844 c-11 -29 1 -54 26 -54 17 0 37 47 30 67 -9 23 -46 15 -56
-13z"/>
<path d="M144 665 c-8 -19 22 -65 42 -65 21 0 29 27 16 56 -13 27 -49 33 -58
9z"/>
<path d="M283 483 c-19 -7 -16 -38 7 -58 24 -22 53 -13 48 16 -3 24 -36 49
-55 42z"/>
<path d="M453 323 c-22 -8 -14 -42 13 -59 23 -16 27 -16 41 -1 14 13 14 19 3
32 -18 22 -42 33 -57 28z"/>
<path d="M647 203 c-16 -15 -5 -42 21 -50 34 -12 52 -6 52 17 0 28 -54 52 -73
33z"/>
<path d="M1343 190 c-26 -11 -31 -45 -7 -54 16 -6 54 10 66 28 8 12 -9 36 -26
35 -6 0 -21 -4 -33 -9z"/>
<path d="M870 140 c-23 -15 1 -44 39 -48 32 -3 54 20 35 37 -16 14 -59 21 -74
11z"/>
<path d="M1096 124 c-9 -25 6 -36 45 -32 26 2 34 8 34 23 0 27 -69 35 -79 9z"/>
</g>
</svg>
